<svg width="339" height="234" viewBox="0 0 339 234" fill="none" xmlns="http://www.w3.org/2000/svg">
<rect x="0.75" y="0.75" width="337.5" height="232.5" stroke="#0D08F4" stroke-width="1.5" stroke-dasharray="1 1 2 3 5 1 1 2"/>
<path d="M211.5 100C211.5 135.042 181.308 163.5 144 163.5C106.692 163.5 76.5 135.042 76.5 100C76.5 64.958 106.692 36.5 144 36.5C181.308 36.5 211.5 64.958 211.5 100Z" fill="#0D08F4" fill-opacity="0.5" stroke="#0D08F4"/>
<path d="M262.5 133C262.5 168.042 232.308 196.5 195 196.5C157.692 196.5 127.5 168.042 127.5 133C127.5 97.958 157.692 69.5 195 69.5C232.308 69.5 262.5 97.958 262.5 133Z" fill="#0D08F4" fill-opacity="0.5" stroke="#0D08F4"/>
<path d="M35.2727 88.15H21.6727V104H17.4727V69.1H21.6727V84.5H35.2727V69.1H39.4727V104H35.2727V88.15ZM68.7531 104L65.8031 94.05H53.5531L50.6031 104H46.2531L56.9531 69.1H62.5031L73.2031 104H68.7531ZM59.9031 73.55H59.4531L54.5531 90.4H64.8031L59.9031 73.55ZM84.0836 74.45H83.7336V104H79.9336V69.1H85.8836L97.7836 98.35H98.1336V69.1H101.934V104H95.9836L84.0836 74.45ZM115.314 74.45H114.964V104H111.164V69.1H117.114L129.014 98.35H129.364V69.1H133.164V104H127.214L115.314 74.45ZM162.445 104L159.495 94.05H147.245L144.295 104H139.945L150.645 69.1H156.195L166.895 104H162.445ZM153.595 73.55H153.145L148.245 90.4H158.495L153.595 73.55ZM191.425 88.15H177.825V104H173.625V69.1H177.825V84.5H191.425V69.1H195.625V104H191.425V88.15ZM238.086 104V69.1H242.286V100.35H258.836V104H238.086ZM267.816 104V69.1H289.316V72.75H272.016V84.5H288.716V88.15H272.016V100.35H289.316V104H267.816ZM299.047 104V69.1H320.547V72.75H303.247V84.5H319.947V88.15H303.247V100.35H320.547V104H299.047Z" fill="black"/>
<path d="M82.302 140.65H86.452V185.95H82.302V140.65ZM62.602 144.15C69.302 144.15 74.102 150.3 74.102 159.9C74.102 169.55 69.302 175.7 62.602 175.7C55.952 175.7 51.152 169.55 51.152 159.9C51.152 150.3 55.952 144.15 62.602 144.15ZM62.602 147.9C58.202 147.9 55.102 152.6 55.102 159.9C55.102 167.25 58.202 172.05 62.602 172.05C67.052 172.05 70.102 167.25 70.102 159.9C70.102 152.6 67.052 147.9 62.602 147.9Z" fill="black"/>
<path d="M176.102 140.7H180.252V185.9H176.102V140.7ZM179.252 159.25H187.652V162.75H179.252V159.25ZM145.252 147.9H171.902V151.3H145.252V147.9ZM158.752 155.05C165.152 155.05 169.752 159.35 169.752 165.45C169.752 171.55 165.152 175.85 158.752 175.85C152.402 175.85 147.752 171.55 147.752 165.45C147.752 159.35 152.402 155.05 158.752 155.05ZM158.752 158.5C154.652 158.5 151.702 161.35 151.702 165.45C151.702 169.5 154.652 172.4 158.752 172.4C162.852 172.4 165.802 169.5 165.802 165.45C165.802 161.35 162.852 158.5 158.752 158.5ZM156.602 141.25H160.752V149.45H156.602V141.25Z" fill="black"/>
<path d="M281.102 158.7H289.452V162.2H281.102V158.7ZM278.052 140.65H282.252V185.9H278.052V140.65ZM249.252 145.1H253.402V173.1H249.252V145.1ZM249.252 170.95H252.852C259.552 170.95 266.402 170.5 273.852 168.95L274.352 172.4C266.652 174 259.702 174.45 252.852 174.45H249.252V170.95Z" fill="black"/>
</svg>
