<svg width="133" height="101" viewBox="0 0 133 101" fill="none" xmlns="http://www.w3.org/2000/svg">
<path d="M104.736 36.5781V40.3894L65.2363 40.1777H25.5485V38.6955C25.4231 37.8485 25.3918 37.2839 25.4545 37.0016C25.5172 36.7193 38.7778 36.5781 65.2363 36.5781H104.736Z" fill="#EB1414"/>
<path d="M58.0936 0V7.46384H73.6114V0H79.6774V7.46384H95.3362V10.4811H79.6774V11.2752C79.6774 11.9104 79.5833 12.5985 79.3952 13.3396C79.2071 14.0807 78.9955 14.7424 78.7604 15.3247C78.5253 15.907 78.2432 16.4099 77.914 16.8333C77.5848 17.2568 77.1381 17.6274 76.5738 17.945C76.0096 18.2626 75.3512 18.4214 74.5988 18.4214H73.6114V10.4811H58.0936V11.1164C58.0936 11.5398 58.0231 12.1751 57.882 13.022C57.7409 13.869 57.5293 14.6101 57.2472 15.2453C56.965 15.8805 56.6124 16.4628 56.1892 16.9921C55.7659 17.5215 55.3192 17.892 54.849 18.1038C54.3788 18.3155 53.7675 18.4214 53.0151 18.4214H52.0276V10.4811H44.1276L36.0866 10.3223V7.46384H52.0276V0H58.0936ZM57.3883 19.6918C59.3632 19.6918 60.3507 19.7448 60.3507 19.8506C60.3507 19.9565 59.4103 21.5975 57.5293 24.7736C55.1782 28.5849 53.7675 30.914 53.2972 31.761L52.0276 33.9843V47.0063L51.8865 60.1871L51.6044 61.2987C51.3222 62.1457 50.9931 62.8603 50.6169 63.4426C50.2407 64.0249 49.841 64.4219 49.4178 64.6336C48.9946 64.8454 48.5949 64.9513 48.2187 64.9513H47.5133V39.8601L45.8205 41.4481C44.6919 42.7186 43.5163 43.8302 42.2937 44.783C41.0711 45.8417 39.8485 46.7945 38.6259 47.6415C37.4033 48.4885 36.7214 48.912 36.5804 48.912C36.4393 48.912 36.2277 48.7002 35.9456 48.2767L35.3813 47.6415L38.767 43.6714C41.0241 41.1305 42.4818 39.4366 43.1401 38.5896C43.7044 37.8485 44.5038 36.8428 45.5383 35.5723C46.4788 34.196 47.2782 33.0314 47.9365 32.0786C48.6889 30.7023 49.9586 28.3732 51.7454 25.0912L54.4258 19.6918H57.3883ZM71.0721 20.327L71.2132 29.8553V39.5425L72.906 37.7956C73.9405 36.631 74.928 35.4135 75.8685 34.1431C76.7149 32.9785 77.4673 31.8669 78.1256 30.8082C78.972 29.5377 79.7244 28.2144 80.3827 26.8381C80.853 25.9911 81.2056 25.4088 81.4408 25.0912C81.6759 24.7736 81.8405 24.6148 81.9345 24.6148C82.2167 24.6148 83.2041 24.7736 84.897 25.0912C86.6839 25.3029 87.5773 25.4617 87.5773 25.5676C87.6714 25.5676 87.5773 25.9911 87.2952 26.8381C87.013 27.685 86.5428 28.7702 85.8845 30.0936C85.2262 31.4169 84.4738 32.7138 83.6274 33.9843C82.6869 35.3606 81.6994 36.631 80.6649 37.7956C79.7244 38.9602 78.7839 39.913 77.8435 40.6541C76.997 41.501 76.1976 42.1892 75.4453 42.7186C74.6929 43.3538 73.7524 44.0419 72.6239 44.783L71.0721 45.577V60.6635H87.5773V48.2767H92.7969V66.0629L92.2326 65.7453C91.8565 65.6394 91.4803 65.4806 91.1041 65.2689C90.7279 65.0571 90.3047 64.7395 89.8345 64.316L89.1291 63.6808H80.1006C74.0816 63.6808 71.0721 63.8132 71.0721 64.0778C71.0721 64.3425 70.978 64.4219 70.7899 64.316C70.6019 64.316 70.1316 64.1043 69.3792 63.6808C68.7209 63.3632 68.1331 62.9133 67.6159 62.331C67.0986 61.7487 66.7459 61.1929 66.5578 60.6635C66.2757 60.0283 66.0406 59.3931 65.8525 58.7579C65.7584 58.1226 65.7114 56.217 65.7114 53.0409C65.6174 49.9707 65.5233 48.4355 65.4293 48.4355C65.4293 48.4355 65.3117 48.462 65.0766 48.5149C64.8415 48.5679 64.5828 48.6473 64.3007 48.7531C64.0186 48.859 63.7364 48.9649 63.4543 49.0708C62.4198 49.3884 61.0561 49.7589 59.3632 50.1824C57.7644 50.6059 56.6359 50.8705 55.9776 50.9764L55.2722 51.1352V50.1824C55.3663 49.5472 55.4603 49.2296 55.5543 49.2296C55.5543 49.1237 55.8365 49.0178 56.4008 48.912C57.0591 48.7002 57.8585 48.3826 58.799 47.9591C59.8335 47.5356 60.915 47.0063 62.0436 46.3711C62.9841 45.8417 63.8775 45.3124 64.7239 44.783L65.7114 44.1478V20.327H71.0721Z" fill="black"/>
<path d="M16.4788 26.0804H18.6742V53.0574H16.4788V26.0804ZM6.05721 28.1647C9.6016 28.1647 12.1409 31.8272 12.1409 37.5442C12.1409 43.2909 9.6016 46.9534 6.05721 46.9534C2.53927 46.9534 0 43.2909 0 37.5442C0 31.8272 2.53927 28.1647 6.05721 28.1647ZM6.05721 30.3979C3.72955 30.3979 2.08961 33.1969 2.08961 37.5442C2.08961 41.9212 3.72955 44.7797 6.05721 44.7797C8.41132 44.7797 10.0248 41.9212 10.0248 37.5442C10.0248 33.1969 8.41132 30.3979 6.05721 30.3979Z" fill="black"/>
<path d="M71.1553 74.0825H73.3507V101H71.1553V74.0825ZM72.8217 85.1294H77.2654V87.2137H72.8217V85.1294ZM54.8352 78.3703H68.9335V80.395H54.8352V78.3703ZM61.9769 82.6282C65.3626 82.6282 67.7961 85.189 67.7961 88.8216C67.7961 92.4543 65.3626 95.015 61.9769 95.015C58.6177 95.015 56.1578 92.4543 56.1578 88.8216C56.1578 85.189 58.6177 82.6282 61.9769 82.6282ZM61.9769 84.6828C59.808 84.6828 58.2474 86.38 58.2474 88.8216C58.2474 91.2335 59.808 92.9605 61.9769 92.9605C64.1459 92.9605 65.7065 91.2335 65.7065 88.8216C65.7065 86.38 64.1459 84.6828 61.9769 84.6828ZM60.8395 74.4101H63.035V79.2933H60.8395V74.4101Z" fill="black"/>
<path d="M128.583 36.8295H133V38.9139H128.583V36.8295ZM126.969 26.0804H129.191V53.0277H126.969V26.0804ZM111.734 28.7305H113.929V45.405H111.734V28.7305ZM111.734 44.1246H113.638C117.182 44.1246 120.806 43.8567 124.747 42.9336L125.012 44.9881C120.938 45.941 117.262 46.209 113.638 46.209H111.734V44.1246Z" fill="black"/>
</svg>
