<svg width="39" height="40" viewBox="0 0 39 40" fill="none" xmlns="http://www.w3.org/2000/svg">
<path d="M12.48 2.3999C6.8893 2.3999 2.33997 7.06589 2.33997 12.7999V27.1999C2.33997 32.9339 6.8893 37.5999 12.48 37.5999H26.52C32.1106 37.5999 36.66 32.9339 36.66 27.1999V12.7999C36.66 7.06589 32.1106 2.3999 26.52 2.3999H12.48ZM12.48 3.9999H26.52C31.2674 3.9999 35.1 7.93072 35.1 12.7999V27.1999C35.1 32.0691 31.2674 35.9999 26.52 35.9999H12.48C7.73251 35.9999 3.89997 32.0691 3.89997 27.1999V12.7999C3.89997 7.93072 7.73251 3.9999 12.48 3.9999ZM28.86 8.7999C28.4462 8.7999 28.0494 8.96847 27.7569 9.26853C27.4643 9.56859 27.3 9.97556 27.3 10.3999C27.3 10.8242 27.4643 11.2312 27.7569 11.5313C28.0494 11.8313 28.4462 11.9999 28.86 11.9999C29.2737 11.9999 29.6705 11.8313 29.9631 11.5313C30.2556 11.2312 30.42 10.8242 30.42 10.3999C30.42 9.97556 30.2556 9.56859 29.9631 9.26853C29.6705 8.96847 29.2737 8.7999 28.86 8.7999ZM19.5 11.1999C14.7706 11.1999 10.92 15.1493 10.92 19.9999C10.92 24.8505 14.7706 28.7999 19.5 28.7999C24.2293 28.7999 28.08 24.8505 28.08 19.9999C28.08 15.1493 24.2293 11.1999 19.5 11.1999ZM19.5 12.7999C23.3862 12.7999 26.52 16.014 26.52 19.9999C26.52 23.9858 23.3862 27.1999 19.5 27.1999C15.6137 27.1999 12.48 23.9858 12.48 19.9999C12.48 16.014 15.6137 12.7999 19.5 12.7999Z" fill="#0D08F4"/>
</svg>
