<svg width="46" height="46" viewBox="0 0 46 46" fill="none" xmlns="http://www.w3.org/2000/svg">
<path d="M36.8 6.1333H9.19997C7.50563 6.1333 6.1333 7.50563 6.1333 9.19997V36.8C6.1333 38.4943 7.50563 39.8666 9.19997 39.8666H36.8C38.4943 39.8666 39.8666 38.4943 39.8666 36.8V9.19997C39.8666 7.50563 38.4943 6.1333 36.8 6.1333ZM16.7961 33.7333H12.2728V19.1789H16.7961V33.7333ZM14.4884 17.0982C13.0302 17.0982 11.8511 15.916 11.8511 14.4608C11.8511 13.0057 13.0318 11.825 14.4884 11.825C15.942 11.825 17.1242 13.0072 17.1242 14.4608C17.1242 15.916 15.942 17.0982 14.4884 17.0982ZM33.7394 33.7333H29.2192V26.6554C29.2192 24.9672 29.1885 22.796 26.8686 22.796C24.5149 22.796 24.153 24.6345 24.153 26.5328V33.7333H19.6328V19.1789H23.9721V21.1676H24.0334C24.6376 20.0238 26.1126 18.817 28.313 18.817C32.893 18.817 33.7394 21.8316 33.7394 25.7508V33.7333Z" fill="#0D08F4"/>
</svg>
